# xmcd
#
# Track frame offsets:
# 150
# 12752
# 31832
# 50813
# 69592
# 97433
#
# Disc length: 1674 seconds
#
# Revision: 0
# Processed by: cddbd v1.5PL3 Copyright (c) Steve Scherf et al.
# Submitted via: Audion 3.0.2 (http://www.panic.com/audion/)
#
DISCID=4f068806
DTITLE=Sounds Like Violence - The Pistol EP
DYEAR=1900
DGENRE=
TTITLE0=You Give Me Heartattacks
TTITLE1=Cry! Oh Cry!
TTITLE2=The Pistol
TTITLE3=Grow/Blow
TTITLE4=Afasi
TTITLE5=Perfect
EXTD=
EXTT0=
EXTT1=
EXTT2=
EXTT3=
EXTT4=
EXTT5=
PLAYORDER=
